<mxfile host="Electron" modified="2023-12-29T05:29:56.870Z" agent="Mozilla/5.0 (Macintosh; Intel Mac OS X 10_15_7) AppleWebKit/537.36 (KHTML, like Gecko) draw.io/22.1.11 Chrome/114.0.5735.289 Electron/25.9.8 Safari/537.36" etag="I0cjrX0upWwzI3Ge2Avt" version="22.1.11" type="device">
  <diagram name="페이지-1" id="SMisctXA6x_SqZZIEmpv">
    <mxGraphModel dx="1114" dy="894" grid="1" gridSize="10" guides="1" tooltips="1" connect="1" arrows="1" fold="1" page="1" pageScale="1" pageWidth="827" pageHeight="1169" math="0" shadow="0">
      <root>
        <mxCell id="0" />
        <mxCell id="1" parent="0" />
        <mxCell id="CrtRkZK1TJD8pSBzwjq3-7" style="edgeStyle=orthogonalEdgeStyle;rounded=0;orthogonalLoop=1;jettySize=auto;html=1;entryX=0;entryY=0.5;entryDx=0;entryDy=0;endArrow=block;endFill=1;" edge="1" parent="1" source="CrtRkZK1TJD8pSBzwjq3-1" target="CrtRkZK1TJD8pSBzwjq3-5">
          <mxGeometry relative="1" as="geometry" />
        </mxCell>
        <mxCell id="CrtRkZK1TJD8pSBzwjq3-10" style="edgeStyle=orthogonalEdgeStyle;rounded=0;orthogonalLoop=1;jettySize=auto;html=1;entryX=0;entryY=0.5;entryDx=0;entryDy=0;endArrow=block;endFill=1;" edge="1" parent="1" source="CrtRkZK1TJD8pSBzwjq3-1" target="CrtRkZK1TJD8pSBzwjq3-6">
          <mxGeometry relative="1" as="geometry">
            <Array as="points">
              <mxPoint x="120" y="225" />
            </Array>
          </mxGeometry>
        </mxCell>
        <mxCell id="CrtRkZK1TJD8pSBzwjq3-1" value="프로듀서" style="rounded=0;whiteSpace=wrap;html=1;verticalAlign=top;fillColor=#f5f5f5;fontColor=#333333;strokeColor=#666666;" vertex="1" parent="1">
          <mxGeometry x="60" y="60" width="120" height="90" as="geometry" />
        </mxCell>
        <mxCell id="CrtRkZK1TJD8pSBzwjq3-2" value="시리얼라이저" style="rounded=0;whiteSpace=wrap;html=1;fillColor=#d5e8d4;strokeColor=#82b366;" vertex="1" parent="1">
          <mxGeometry x="75" y="100" width="90" height="40" as="geometry" />
        </mxCell>
        <mxCell id="CrtRkZK1TJD8pSBzwjq3-3" value="컨슈머" style="rounded=0;whiteSpace=wrap;html=1;verticalAlign=top;fillColor=#f5f5f5;fontColor=#333333;strokeColor=#666666;" vertex="1" parent="1">
          <mxGeometry x="420" y="60" width="120" height="90" as="geometry" />
        </mxCell>
        <mxCell id="CrtRkZK1TJD8pSBzwjq3-4" value="디시리얼라이저" style="rounded=0;whiteSpace=wrap;html=1;fillColor=#d5e8d4;strokeColor=#82b366;" vertex="1" parent="1">
          <mxGeometry x="435" y="100" width="90" height="40" as="geometry" />
        </mxCell>
        <mxCell id="CrtRkZK1TJD8pSBzwjq3-9" style="edgeStyle=orthogonalEdgeStyle;rounded=0;orthogonalLoop=1;jettySize=auto;html=1;entryX=0;entryY=0.5;entryDx=0;entryDy=0;endArrow=block;endFill=1;" edge="1" parent="1" source="CrtRkZK1TJD8pSBzwjq3-5" target="CrtRkZK1TJD8pSBzwjq3-3">
          <mxGeometry relative="1" as="geometry" />
        </mxCell>
        <mxCell id="CrtRkZK1TJD8pSBzwjq3-5" value="카프카 브로커" style="ellipse;whiteSpace=wrap;html=1;fillColor=#e1d5e7;strokeColor=#9673a6;" vertex="1" parent="1">
          <mxGeometry x="260" y="80" width="85" height="50" as="geometry" />
        </mxCell>
        <mxCell id="CrtRkZK1TJD8pSBzwjq3-12" style="edgeStyle=orthogonalEdgeStyle;rounded=0;orthogonalLoop=1;jettySize=auto;html=1;entryX=0.5;entryY=1;entryDx=0;entryDy=0;endArrow=block;endFill=1;" edge="1" parent="1" source="CrtRkZK1TJD8pSBzwjq3-6" target="CrtRkZK1TJD8pSBzwjq3-3">
          <mxGeometry relative="1" as="geometry" />
        </mxCell>
        <mxCell id="CrtRkZK1TJD8pSBzwjq3-6" value="스키마&lt;br&gt;레지스트리" style="ellipse;whiteSpace=wrap;html=1;fillColor=#e1d5e7;strokeColor=#9673a6;" vertex="1" parent="1">
          <mxGeometry x="260" y="200" width="85" height="50" as="geometry" />
        </mxCell>
        <mxCell id="CrtRkZK1TJD8pSBzwjq3-8" value="스키마 ID&amp;nbsp; 를 갖는 메시지" style="text;html=1;strokeColor=none;fillColor=none;align=center;verticalAlign=middle;whiteSpace=wrap;rounded=0;" vertex="1" parent="1">
          <mxGeometry x="182" y="70" width="70" height="40" as="geometry" />
        </mxCell>
        <mxCell id="CrtRkZK1TJD8pSBzwjq3-11" value="현재 버전의 스키마" style="text;html=1;strokeColor=none;fillColor=none;align=center;verticalAlign=middle;whiteSpace=wrap;rounded=0;" vertex="1" parent="1">
          <mxGeometry x="140" y="190" width="70" height="40" as="geometry" />
        </mxCell>
      </root>
    </mxGraphModel>
  </diagram>
</mxfile>
